<svg xmlns="http://www.w3.org/2000/svg" xmlns:xlink="http://www.w3.org/1999/xlink" width="1080" zoomAndPan="magnify" viewBox="0 0 810 809.999993" height="1080" preserveAspectRatio="xMidYMid meet" version="1.0"><defs><clipPath id="1a1d6cc302"><path d="M 83.023438 470 L 727.273438 470 L 727.273438 753 L 83.023438 753 Z M 83.023438 470 " clip-rule="nonzero"/></clipPath></defs><path fill="#f2f2f2" d="M 686.199219 169.363281 L 686.199219 785.394531 C 686.199219 798.863281 675.15625 809.898438 661.679688 809.898438 L 148.617188 809.898438 C 135.144531 809.898438 124.101562 798.863281 124.101562 785.394531 L 124.101562 24.605469 C 124.101562 11.136719 135.144531 0.101562 148.617188 0.101562 L 514.90625 0.101562 Z M 686.199219 169.363281 " fill-opacity="1" fill-rule="nonzero"/><path fill="#cccccc" d="M 686.199219 169.363281 L 539.585938 169.363281 C 526.109375 169.363281 515.070312 158.328125 515.070312 144.859375 L 515.070312 0.101562 " fill-opacity="0.73" fill-rule="nonzero"/><g clip-path="url(#1a1d6cc302)"><path fill="#006837" d="M 694.800781 752.777344 L 115.496094 752.777344 C 97.636719 752.777344 83.023438 738.171875 83.023438 720.320312 L 83.023438 502.53125 C 83.023438 484.683594 97.636719 470.074219 115.496094 470.074219 L 694.800781 470.074219 C 712.664062 470.074219 727.273438 484.683594 727.273438 502.53125 L 727.273438 720.320312 C 727.273438 738.171875 712.824219 752.777344 694.800781 752.777344 Z M 694.800781 752.777344 " fill-opacity="1" fill-rule="nonzero"/></g><path fill="#666666" d="M 596.25 392.339844 L 215.1875 392.339844 C 207.070312 392.339844 200.574219 385.851562 200.574219 377.734375 C 200.574219 369.621094 207.070312 363.128906 215.1875 363.128906 L 596.25 363.128906 C 604.367188 363.128906 610.863281 369.621094 610.863281 377.734375 C 610.863281 385.851562 604.367188 392.339844 596.25 392.339844 Z M 596.25 392.339844 " fill-opacity="0.77" fill-rule="nonzero"/><path fill="#666666" d="M 596.25 320.289062 L 215.1875 320.289062 C 207.070312 320.289062 200.574219 313.796875 200.574219 305.683594 C 200.574219 297.566406 207.070312 291.078125 215.1875 291.078125 L 596.25 291.078125 C 604.367188 291.078125 610.863281 297.566406 610.863281 305.683594 C 610.863281 313.796875 604.367188 320.289062 596.25 320.289062 Z M 596.25 320.289062 " fill-opacity="0.77" fill-rule="nonzero"/><path fill="#666666" d="M 596.25 248.394531 L 215.1875 248.394531 C 207.070312 248.394531 200.574219 241.902344 200.574219 233.789062 C 200.574219 225.675781 207.070312 219.183594 215.1875 219.183594 L 596.25 219.183594 C 604.367188 219.183594 610.863281 225.675781 610.863281 233.789062 C 610.863281 241.902344 604.367188 248.394531 596.25 248.394531 Z M 596.25 248.394531 " fill-opacity="0.77" fill-rule="nonzero"/><path fill="#ffffff" d="M 247.011719 637.230469 L 216.484375 690.132812 L 167.128906 690.132812 L 223.304688 611.101562 L 171.023438 533.367188 L 218.757812 533.367188 L 248.308594 585.621094 L 280.132812 533.367188 L 327.214844 533.367188 L 272.5 610.453125 L 327.703125 690.132812 L 279.96875 690.132812 Z M 247.011719 637.230469 " fill-opacity="1" fill-rule="nonzero"/><path fill="#ffffff" d="M 476.914062 690.132812 L 356.605469 690.132812 L 356.605469 533.367188 L 397.519531 533.367188 L 397.519531 655.566406 L 476.914062 655.566406 Z M 476.914062 690.132812 " fill-opacity="1" fill-rule="nonzero"/><path fill="#ffffff" d="M 627.746094 581.726562 L 586.832031 581.726562 C 585.046875 568.746094 578.226562 560.144531 564.75 560.144531 C 555.496094 560.144531 549.003906 564.6875 549.003906 574.261719 C 549.003906 584.324219 556.308594 590.328125 582.125 596.496094 C 616.707031 604.609375 630.832031 621.972656 630.832031 645.992188 C 630.832031 677.3125 600.796875 693.21875 569.296875 693.21875 C 529.519531 693.21875 502.730469 677.3125 500.132812 642.097656 L 541.046875 642.097656 C 543.804688 656.867188 555.820312 663.195312 568.160156 663.195312 C 579.527344 663.195312 588.132812 657.351562 588.132812 648.589844 C 588.132812 640.476562 582.285156 633.335938 562.964844 628.628906 C 527.246094 619.703125 506.300781 608.667969 506.300781 577.347656 C 506.300781 547.160156 534.550781 530.121094 565.5625 530.121094 C 607.128906 530.285156 624.335938 552.679688 627.746094 581.726562 Z M 627.746094 581.726562 " fill-opacity="1" fill-rule="nonzero"/></svg>