<svg xmlns="http://www.w3.org/2000/svg" xmlns:xlink="http://www.w3.org/1999/xlink" width="1080" zoomAndPan="magnify" viewBox="0 0 810 809.999993" height="1080" preserveAspectRatio="xMidYMid meet" version="1.0"><path fill="#18aa42" d="M 584.320312 235.179688 C 584.421875 234.753906 584.515625 234.324219 584.59375 233.890625 C 586.824219 221.445312 575.78125 211.234375 563.992188 205.097656 C 536.945312 191.019531 501.28125 188.644531 473.042969 201.847656 C 455.566406 210.015625 442.355469 225.65625 442.558594 242.453125 C 432.261719 232.042969 412.378906 231.09375 398.417969 237.851562 C 384.457031 244.605469 375.847656 257.304688 371.507812 270.335938 C 369.167969 253.390625 348.894531 239.675781 328.675781 241.363281 C 308.457031 243.050781 291.796875 259.851562 293.484375 276.855469 C 283.078125 257.226562 271.785156 237.042969 252.21875 223.195312 C 232.652344 209.355469 202.390625 203.75 181.34375 215.964844 C 166.113281 224.804688 158.886719 241.011719 158.402344 256.550781 C 157.914062 272.09375 163.207031 287.300781 168.445312 302.210938 C 148.667969 281.660156 126.511719 261.167969 97.105469 251.753906 C 67.695312 242.34375 29.300781 247.691406 13.019531 270.308594 C 3.570312 283.4375 3.066406 300.105469 8.183594 314.828125 C 13.296875 329.554688 23.507812 342.648438 34.558594 354.867188 C 59.195312 382.109375 89.59375 406.703125 127.023438 420.214844 C 110.804688 413.632812 89.664062 423.214844 83.96875 437.566406 C 78.273438 451.914062 85.816406 468.328125 99.109375 478.53125 C 112.398438 488.738281 130.421875 493.570312 148.265625 495.628906 C 166.109375 497.6875 184.226562 497.265625 202.179688 498.476562 C 177.714844 509.714844 174.839844 541.703125 193.421875 559.167969 C 212 576.628906 244.867188 579.679688 270.644531 570.75 C 296.425781 561.820312 318.003906 541.046875 315.433594 519.316406 C 344.019531 527.492188 392.917969 516.507812 402.773438 492.539062 C 398.613281 505.539062 416.28125 517.683594 432.242188 516.417969 C 448.203125 515.148438 461.113281 505.152344 471.375 494.808594 C 488.746094 529.589844 555.113281 623.128906 600.515625 558.851562 C 610.867188 544.191406 613.019531 526.59375 614.933594 509.625 C 635.199219 519.683594 660.160156 524.730469 682.613281 518.796875 C 705.070312 512.863281 723.273438 494.011719 720.621094 474.371094 C 734.234375 478.910156 749.359375 481.484375 763.5625 478.476562 C 791 472.664062 807.390625 446.1875 803.355469 422.671875 C 799.320312 399.160156 778.929688 379.417969 754.769531 367.050781 C 730.609375 354.6875 702.773438 348.554688 675.386719 342.585938 C 710.203125 345.734375 743.3125 315.753906 736.941406 286.835938 C 724.433594 230.078125 632.417969 232.070312 584.242188 252.851562 C 581.84375 253.886719 563.855469 261.941406 563.851562 262.363281 C 563.851562 262.363281 573.804688 252.476562 575.847656 249.996094 C 579.53125 245.527344 582.992188 240.570312 584.320312 235.179688 Z M 584.320312 235.179688 " fill-opacity="1" fill-rule="nonzero"/><path fill="#000000" d="M 564.453125 582.824219 C 563.421875 582.824219 562.386719 582.78125 561.34375 582.703125 C 521.828125 579.699219 483.195312 521.539062 470.859375 498.082031 C 462.0625 506.644531 449.023438 517.050781 432.40625 518.371094 C 421.8125 519.199219 410.175781 514.496094 404.15625 506.894531 C 402.421875 504.707031 401.25 502.375 400.660156 499.996094 C 394.070312 508.53125 382.128906 515.582031 366.65625 519.867188 C 350.078125 524.464844 331.589844 525.199219 317.59375 521.902344 C 318.285156 544.433594 295.320312 564.277344 271.292969 572.601562 C 242.707031 582.496094 210.140625 577.5625 192.085938 560.59375 C 182.316406 551.410156 177.773438 538.027344 179.933594 524.796875 C 181.613281 514.523438 187.15625 505.796875 195.472656 500.050781 C 190.515625 499.8125 185.542969 499.660156 180.683594 499.507812 C 169.96875 499.171875 158.886719 498.828125 148.050781 497.578125 C 126.691406 495.113281 109.828125 489.226562 97.925781 480.085938 C 82.824219 468.496094 76.492188 451.117188 82.152344 436.84375 C 85.082031 429.46875 91.785156 423.089844 100.546875 419.34375 C 104.386719 417.703125 108.363281 416.691406 112.285156 416.316406 C 84.296875 403.566406 57.722656 383.394531 33.113281 356.179688 C 22.96875 344.972656 11.859375 331.367188 6.339844 315.476562 C 0.496094 298.664062 2.355469 281.785156 11.433594 269.171875 C 24.917969 250.4375 60.875 238.109375 97.703125 249.898438 C 125.234375 258.707031 146.199219 276.902344 163.726562 294.574219 C 159.570312 282.257812 156.039062 269.585938 156.449219 256.496094 C 157.015625 238.425781 165.957031 222.640625 180.363281 214.277344 C 202.957031 201.171875 234.175781 208.039062 253.347656 221.601562 C 270.777344 233.929688 281.492188 250.621094 291.84375 269.660156 C 292.792969 264.386719 295.285156 259.191406 299.15625 254.539062 C 306.253906 246.011719 317.230469 240.355469 328.511719 239.414062 C 347.46875 237.835938 366.078125 248.847656 371.859375 263.949219 C 377.390625 251.28125 386.367188 241.511719 397.566406 236.089844 C 410.171875 229.992188 428.910156 229.507812 440.804688 238.351562 C 442.492188 223.097656 454.40625 208.398438 472.210938 200.074219 C 499.851562 187.152344 536.226562 188.445312 564.894531 203.363281 C 572.359375 207.25 589.417969 218.042969 586.515625 234.234375 C 586.433594 234.703125 586.332031 235.175781 586.214844 235.644531 C 584.710938 241.757812 580.691406 247.191406 577.359375 251.242188 C 576.671875 252.074219 575.171875 253.667969 573.445312 255.453125 C 576.121094 254.25 579.414062 252.804688 583.472656 251.054688 C 600.980469 243.5 623.625 238.628906 645.597656 237.695312 C 662.933594 236.941406 687.90625 238.28125 708.484375 248.824219 C 725 257.28125 735.214844 269.929688 738.851562 286.417969 C 741.566406 298.75 737.480469 312.234375 727.632812 323.414062 C 718.050781 334.292969 704.632812 341.546875 690.507812 343.921875 C 712.953125 349.007812 735.488281 354.984375 755.660156 365.308594 C 783.414062 379.515625 801.5 400.304688 805.28125 422.34375 C 809.710938 448.121094 790.789062 474.703125 763.96875 480.386719 C 751.9375 482.941406 738.101562 481.84375 722.8125 477.125 C 723.410156 495.746094 706.609375 514.480469 683.117188 520.6875 C 663.019531 526 638.902344 523.039062 616.566406 512.585938 C 614.777344 528.195312 612.351562 545.484375 602.113281 559.980469 C 591.40625 575.152344 578.746094 582.824219 564.453125 582.824219 Z M 471.382812 492.855469 C 471.484375 492.855469 471.589844 492.863281 471.691406 492.882812 C 472.3125 492.980469 472.851562 493.371094 473.132812 493.9375 C 486.367188 520.4375 525.417969 576.046875 561.640625 578.800781 C 575.785156 579.847656 588.289062 572.78125 598.925781 557.722656 C 609.1875 543.195312 611.210938 525.246094 612.996094 509.40625 C 613.066406 508.773438 613.445312 508.210938 614.007812 507.910156 C 614.5625 507.601562 615.242188 507.59375 615.8125 507.875 C 638 518.894531 662.167969 522.183594 682.125 516.90625 C 705.015625 510.859375 721.078125 492.289062 718.691406 474.636719 C 718.601562 473.964844 718.859375 473.296875 719.382812 472.867188 C 719.902344 472.433594 720.605469 472.304688 721.25 472.515625 C 736.980469 477.757812 751.085938 479.113281 763.167969 476.5625 C 785.285156 471.875 805.941406 449.234375 801.433594 423.007812 C 797.859375 402.195312 780.527344 382.4375 753.882812 368.796875 C 729.746094 356.441406 701.90625 350.371094 674.976562 344.5 C 673.96875 344.28125 673.300781 343.3125 673.460938 342.289062 C 673.621094 341.269531 674.5625 340.550781 675.570312 340.636719 C 693.679688 342.269531 712.503906 334.683594 724.710938 320.824219 C 733.71875 310.59375 737.484375 298.359375 735.039062 287.261719 C 731.667969 271.964844 722.136719 260.203125 706.714844 252.304688 C 673.441406 235.265625 618.722656 240.117188 585.027344 254.648438 C 581.996094 255.957031 567.058594 262.691406 565.183594 263.808594 C 564.621094 264.320312 563.808594 264.460938 563.105469 264.167969 C 562.375 263.863281 561.902344 263.144531 561.90625 262.351562 C 561.910156 261.941406 561.914062 261.59375 562.546875 261.039062 L 562.488281 260.976562 C 562.585938 260.878906 572.390625 251.132812 574.347656 248.753906 C 577.417969 245.023438 581.109375 240.058594 582.425781 234.710938 C 582.429688 234.710938 582.429688 234.707031 582.429688 234.703125 C 582.523438 234.324219 582.605469 233.941406 582.675781 233.550781 C 585.121094 219.910156 569.796875 210.324219 563.097656 206.835938 C 535.464844 192.457031 500.445312 191.199219 473.871094 203.621094 C 455.859375 212.042969 444.335938 227.277344 444.519531 242.429688 C 444.527344 243.226562 444.050781 243.949219 443.316406 244.257812 C 442.585938 244.5625 441.734375 244.394531 441.171875 243.828125 C 432.140625 234.695312 413.335938 232.800781 399.277344 239.609375 C 387.382812 245.363281 378.183594 256.496094 373.367188 270.953125 C 373.078125 271.8125 372.253906 272.378906 371.328125 272.28125 C 370.421875 272.199219 369.695312 271.503906 369.570312 270.601562 C 367.378906 254.722656 347.972656 241.707031 328.839844 243.316406 C 318.578125 244.171875 308.609375 249.300781 302.167969 257.039062 C 297.167969 263.046875 294.773438 270.019531 295.429688 276.660156 C 295.523438 277.59375 294.945312 278.457031 294.050781 278.726562 C 293.152344 279 292.195312 278.597656 291.753906 277.773438 C 280.519531 256.578125 269.703125 237.964844 251.089844 224.796875 C 232.9375 211.949219 203.488281 205.382812 182.328125 217.65625 C 169.09375 225.339844 160.882812 239.902344 160.359375 256.613281 C 159.878906 271.933594 165.175781 286.996094 170.296875 301.5625 C 170.601562 302.433594 170.261719 303.394531 169.476562 303.878906 C 168.691406 304.359375 167.679688 304.234375 167.039062 303.566406 C 148.617188 284.425781 126.457031 263.203125 96.511719 253.617188 C 68.917969 244.792969 30.746094 249.046875 14.613281 271.457031 C 6.285156 283.023438 4.617188 298.597656 10.035156 314.191406 C 15.324219 329.421875 26.136719 342.640625 36.011719 353.558594 C 63.777344 384.257812 94.027344 405.84375 125.949219 417.738281 C 126.5625 417.941406 127.164062 418.164062 127.761719 418.40625 C 128.75 418.808594 129.234375 419.925781 128.855469 420.921875 C 128.472656 421.914062 127.371094 422.421875 126.363281 422.0625 C 125.789062 421.855469 125.21875 421.644531 124.648438 421.433594 C 117.773438 419.1875 109.660156 419.710938 102.085938 422.949219 C 94.390625 426.234375 88.300781 431.972656 85.792969 438.292969 C 80.777344 450.925781 86.613281 466.476562 100.304688 476.988281 C 111.640625 485.691406 127.855469 491.308594 148.496094 493.695312 C 159.171875 494.929688 170.167969 495.269531 180.804688 495.597656 C 187.859375 495.820312 195.152344 496.046875 202.320312 496.53125 C 203.210938 496.589844 203.949219 497.246094 204.113281 498.128906 C 204.273438 499.007812 203.816406 499.886719 203.003906 500.257812 C 192.628906 505.023438 185.632812 514.195312 183.792969 525.429688 C 181.84375 537.371094 185.945312 549.453125 194.765625 557.742188 C 211.535156 573.503906 243.183594 578.199219 270.011719 568.902344 C 293.554688 560.75 316.054688 541.175781 313.496094 519.550781 C 313.417969 518.902344 313.671875 518.257812 314.171875 517.832031 C 314.671875 517.40625 315.347656 517.261719 315.976562 517.441406 C 344.449219 525.574219 391.675781 514.394531 400.976562 491.800781 C 401.371094 490.828125 402.480469 490.34375 403.453125 490.707031 C 404.441406 491.066406 404.964844 492.144531 404.644531 493.140625 C 403.125 497.890625 405.207031 501.921875 407.222656 504.464844 C 412.394531 510.996094 422.886719 515.210938 432.09375 514.472656 C 448.664062 513.15625 461.660156 501.835938 469.992188 493.4375 C 470.363281 493.0625 470.863281 492.855469 471.382812 492.855469 Z M 471.382812 492.855469 " fill-opacity="1" fill-rule="nonzero"/><path fill="#000000" d="M 183.332031 327.476562 C 182.515625 327.476562 181.753906 326.964844 181.480469 326.148438 C 181.460938 326.085938 178.847656 318.871094 164.527344 299.710938 C 163.882812 298.84375 164.058594 297.617188 164.921875 296.96875 C 165.792969 296.324219 167.015625 296.5 167.660156 297.363281 C 182.503906 317.222656 185.085938 324.589844 185.1875 324.890625 C 185.535156 325.917969 184.984375 327.027344 183.957031 327.371094 C 183.75 327.441406 183.542969 327.476562 183.332031 327.476562 Z M 183.332031 327.476562 " fill-opacity="1" fill-rule="nonzero"/><path fill="#000000" d="M 726.09375 477.804688 C 725.890625 477.804688 725.6875 477.773438 725.484375 477.707031 C 714.039062 473.960938 703.355469 468.15625 694.578125 460.929688 C 693.742188 460.238281 693.625 459.007812 694.308594 458.175781 C 694.996094 457.332031 696.226562 457.222656 697.0625 457.90625 C 705.46875 464.828125 715.714844 470.386719 726.699219 473.984375 C 727.730469 474.320312 728.285156 475.429688 727.949219 476.453125 C 727.683594 477.28125 726.917969 477.804688 726.09375 477.804688 Z M 726.09375 477.804688 " fill-opacity="1" fill-rule="nonzero"/><path fill="#000000" d="M 473.335938 277.796875 C 473.121094 277.796875 472.902344 277.765625 472.691406 277.6875 C 455.738281 271.761719 443.078125 258.011719 440.433594 242.664062 C 440.25 241.597656 440.964844 240.585938 442.027344 240.402344 C 443.097656 240.222656 444.105469 240.933594 444.289062 241.996094 C 446.695312 255.96875 458.351562 268.527344 473.976562 273.996094 C 475 274.351562 475.539062 275.464844 475.179688 276.488281 C 474.898438 277.292969 474.140625 277.796875 473.335938 277.796875 Z M 473.335938 277.796875 " fill-opacity="1" fill-rule="nonzero"/><path fill="#000000" d="M 236.707031 391.714844 C 234.824219 387.886719 238.277344 384.714844 238.8125 381.144531 C 239.496094 376.539062 240.789062 371.960938 241.550781 367.347656 C 242.488281 361.65625 245.964844 357.4375 251.113281 356.117188 C 255.902344 354.894531 260.316406 356.917969 262.207031 361.476562 C 262.71875 362.710938 262.949219 364.230469 262.816406 365.640625 C 261.808594 376.367188 259.625 386.984375 254.550781 397.109375 C 249.925781 406.328125 242.519531 411.292969 232.796875 411.648438 C 223.765625 411.96875 217.964844 407.003906 214.328125 399.472656 C 209.3125 389.074219 206.988281 377.753906 206.601562 365.976562 C 206.4375 360.984375 206.566406 355.960938 206.75 350.945312 C 206.828125 348.863281 206.144531 348.164062 204.117188 348.515625 C 202.597656 348.773438 201.035156 348.742188 199.539062 349.082031 C 198.890625 349.230469 198.140625 349.90625 197.8125 350.527344 C 194.515625 356.757812 188.316406 359.140625 182.734375 356.164062 C 177.511719 353.367188 175.796875 346.726562 178.964844 341.023438 C 183.109375 333.523438 189.730469 329.425781 198.058594 328.070312 C 202.277344 327.386719 206.59375 327.488281 210.867188 327.152344 C 211.234375 327.121094 211.605469 327.003906 211.972656 326.925781 C 211.929688 326.628906 211.929688 326.359375 211.886719 326.359375 C 209.027344 326.105469 208.964844 324.246094 209.34375 321.921875 C 210.347656 315.652344 210.90625 309.324219 212.265625 303.109375 C 213.417969 297.839844 218.359375 294.972656 224.238281 295.234375 C 228.761719 295.4375 232.757812 299.449219 232.652344 304.273438 C 232.574219 307.976562 231.96875 311.722656 231.527344 315.449219 C 231.121094 318.851562 230.625 322.253906 230.15625 325.65625 C 229.828125 328.054688 230.328125 328.71875 232.558594 327.761719 C 237.515625 325.621094 242.433594 323.273438 247.222656 320.621094 C 252.363281 317.777344 257.898438 318.378906 260.882812 322.574219 C 264.238281 327.277344 262.679688 334.335938 257.175781 338.164062 C 247.59375 344.808594 237.476562 349.566406 226.238281 349.945312 C 225.742188 349.960938 225.234375 350.171875 224.738281 350.285156 C 224.777344 350.574219 224.777344 350.710938 224.796875 350.714844 C 228.761719 350.800781 227.917969 353.847656 227.855469 356.320312 C 227.574219 366.9375 228.765625 377.207031 232.667969 386.75 C 233.453125 388.667969 234.84375 390.292969 235.953125 392.050781 C 236.199219 391.933594 236.453125 391.824219 236.707031 391.714844 Z M 236.707031 391.714844 " fill-opacity="1" fill-rule="nonzero"/><path fill="#000000" d="M 314.855469 344.484375 C 311.910156 344.660156 309.613281 346.683594 307.628906 349.09375 C 303.355469 354.277344 300.300781 360.105469 298.132812 366.121094 C 295.421875 373.644531 293.136719 381.273438 291.117188 388.894531 C 289.570312 394.710938 284.898438 399.339844 279.441406 399.527344 C 273.515625 399.726562 269.261719 395.59375 269.828125 389.640625 C 271.765625 369.117188 271.011719 348.945312 270.988281 328.683594 C 270.980469 322.703125 270.710938 316.761719 270.871094 310.761719 C 271.09375 302.304688 279.855469 296.011719 286.855469 299.082031 C 289.925781 300.4375 291.921875 302.847656 292.007812 306.527344 C 292.210938 315.460938 292.363281 324.40625 292.34375 333.378906 C 292.34375 334.652344 291.523438 336.292969 290.636719 337.445312 C 283.132812 347.179688 278.609375 357.9375 274.847656 368.988281 C 275.019531 369.085938 275.195312 369.179688 275.371094 369.28125 C 275.765625 368.597656 276.265625 367.945312 276.527344 367.234375 C 279.855469 358.230469 283.480469 349.335938 289.242188 341.1875 C 294.144531 334.257812 299.9375 328.378906 307.78125 325.085938 C 319.933594 319.988281 329.710938 323.183594 333.761719 334.117188 C 336.402344 341.242188 336.742188 349.105469 335.964844 357.167969 C 335.148438 365.582031 333.910156 374.046875 332.636719 382.496094 C 331.660156 389 325.859375 394.023438 319.867188 393.832031 C 313.730469 393.644531 310.554688 388.125 311.738281 381.191406 C 313.144531 372.925781 314.054688 364.652344 314.910156 356.402344 C 315.195312 353.65625 314.597656 350.988281 314.507812 348.261719 C 314.46875 347.15625 314.707031 345.992188 314.855469 344.484375 Z M 314.855469 344.484375 " fill-opacity="1" fill-rule="nonzero"/><path fill="#000000" d="M 512.214844 304.492188 C 512.777344 303.980469 513.371094 303.5 513.894531 302.953125 C 519.792969 296.746094 525.617188 290.554688 531.589844 284.601562 C 537.257812 278.929688 545.785156 280.316406 548.945312 287.371094 C 550.609375 291.074219 550.375 294.972656 547.507812 298.050781 C 542.300781 303.648438 536.828125 309.089844 531.367188 314.621094 C 530.910156 315.082031 529.574219 315.121094 528.882812 314.839844 C 526.75 313.964844 524.726562 312.847656 522.664062 311.835938 C 522.5 312.101562 522.335938 312.371094 522.171875 312.636719 C 522.882812 313.070312 523.5625 313.5625 524.308594 313.933594 C 534.640625 319.085938 544.085938 325.679688 551.480469 335.007812 C 554.277344 338.539062 555.105469 342.445312 553.023438 346.535156 C 550.949219 350.628906 547.476562 352.84375 542.792969 352.730469 C 539.566406 352.652344 536.941406 351.257812 534.925781 348.753906 C 528.085938 340.25 518.824219 335.1875 509.164062 330.96875 C 508.71875 330.773438 508.171875 330.773438 507.671875 330.6875 C 507.574219 330.894531 507.476562 331.101562 507.378906 331.3125 C 509.269531 332.210938 511.105469 333.246094 513.070312 333.992188 C 515.058594 334.75 515.574219 336.050781 515.125 338.117188 C 514.222656 342.269531 513.683594 346.496094 512.515625 350.59375 C 511.082031 355.621094 506.609375 358.90625 501.679688 359.207031 C 497.179688 359.480469 493.070312 356.542969 491.914062 351.824219 C 491.554688 350.371094 491.828125 348.65625 492.035156 347.0625 C 492.734375 341.652344 494.070312 336.199219 494.203125 330.84375 C 494.683594 311.136719 493.210938 291.710938 490.824219 272.460938 C 490.046875 266.1875 493.941406 260.324219 500.027344 258.8125 C 505.652344 257.414062 511.078125 261.261719 511.78125 267.453125 C 512.886719 277.15625 513.667969 286.921875 514.695312 296.640625 C 514.953125 299.066406 514.554688 301.09375 512.527344 302.796875 C 512.164062 303.101562 512.011719 303.667969 511.765625 304.117188 C 511.914062 304.242188 512.0625 304.367188 512.214844 304.492188 Z M 512.214844 304.492188 " fill-opacity="1" fill-rule="nonzero"/><path fill="#000000" d="M 418.378906 352.769531 C 418.25 341.019531 419.550781 329.1875 423.3125 317.308594 C 426.765625 306.410156 432 296.367188 442.246094 289.703125 C 457.796875 279.558594 474.109375 284.035156 480.53125 299.53125 C 483.566406 306.847656 484.746094 314.757812 485.242188 322.847656 C 485.933594 334.007812 485.125 345.292969 483.332031 356.621094 C 482.453125 362.1875 477.371094 366.839844 472.132812 367.113281 C 466.179688 367.417969 461.890625 363.554688 462.183594 357.511719 C 462.472656 351.59375 463.332031 345.621094 463.757812 339.6875 C 464.453125 330.035156 464.058594 320.601562 461.269531 311.746094 C 461.035156 311.011719 460.707031 310.316406 460.371094 309.636719 C 457.945312 304.75 453.316406 304.367188 449.488281 309.351562 C 446.960938 312.636719 444.957031 316.605469 443.714844 320.453125 C 439.695312 332.886719 439.246094 345.242188 439.703125 357.484375 C 439.8125 360.441406 439.59375 363.289062 437.777344 366.105469 C 435.207031 370.09375 430.65625 372.679688 426.699219 372.339844 C 422.148438 371.949219 418.945312 368.859375 418.488281 364.378906 C 418.429688 363.828125 418.382812 363.269531 418.382812 362.707031 C 418.371094 359.394531 418.378906 356.078125 418.378906 352.769531 Z M 418.378906 352.769531 " fill-opacity="1" fill-rule="nonzero"/><path fill="#000000" d="M 385.464844 351.324219 C 385.464844 353.203125 385.148438 355.210938 385.527344 356.9375 C 386.4375 361.074219 387.578125 365.125 388.832031 369.109375 C 389.320312 370.648438 388.4375 371.375 387.433594 372.28125 C 377.460938 381.335938 363.988281 384.039062 354.03125 378.8125 C 344.308594 373.707031 340.238281 364.695312 340.425781 352.960938 C 340.644531 339.585938 347.261719 328.230469 357.132812 317.992188 C 361.925781 313.023438 367.148438 308.726562 373.265625 305.734375 C 382.460938 301.246094 392.351562 302.761719 397.621094 309.695312 C 400.378906 313.324219 399.9375 318.886719 396.5625 323.085938 C 393.058594 327.441406 387.550781 329.242188 383.234375 327.410156 C 382.628906 327.152344 381.796875 326.875 381.628906 326.332031 C 380.902344 324.019531 379.15625 324.921875 377.761719 325.882812 C 370.734375 330.734375 364.964844 336.738281 362.460938 344.902344 C 361.070312 349.425781 361.332031 353.757812 364.101562 357.085938 C 367.0625 360.648438 371.695312 360.523438 375.71875 356.574219 C 380.1875 352.183594 383.230469 346.960938 385.675781 341.394531 C 389.375 332.964844 399.273438 330.019531 404.070312 335.976562 C 405.078125 337.226562 405.664062 339.050781 405.859375 340.78125 C 406.71875 348.535156 407.929688 356.054688 412.371094 362.140625 C 413.183594 363.257812 413.429688 365 413.496094 366.554688 C 413.679688 371.125 410.601562 376.066406 406.503906 378.148438 C 401.855469 380.511719 396.722656 380.125 394.332031 376.394531 C 391.925781 372.628906 389.910156 368.46875 388.449219 364.113281 C 387.210938 360.414062 387.011719 356.191406 386.335938 352.207031 C 386.273438 351.847656 386.113281 351.527344 386.003906 351.191406 C 385.824219 351.242188 385.644531 351.28125 385.464844 351.324219 Z M 385.464844 351.324219 " fill-opacity="1" fill-rule="nonzero"/><path fill="#000000" d="M 350.226562 450.414062 C 350.925781 448.808594 351.378906 447.414062 352.105469 446.144531 C 355.632812 439.96875 357.226562 433.433594 358.238281 426.890625 C 359.121094 421.195312 359.539062 415.523438 360.265625 409.832031 C 360.886719 404.953125 364.289062 400.75 368.578125 399.234375 C 373.21875 397.601562 377.730469 398.945312 379.164062 403.027344 C 379.921875 405.183594 379.988281 407.792969 380.089844 410.28125 C 380.710938 425.046875 380.347656 440.054688 378.226562 455.433594 C 376.996094 464.332031 375.300781 473.316406 370.664062 481.980469 C 362.324219 497.695312 340.882812 509.539062 324.445312 495 C 321.9375 492.820312 319.660156 490.257812 317.628906 487.539062 C 312.921875 481.15625 316.15625 473.34375 323.941406 471.660156 C 327.628906 470.835938 330.640625 472.019531 333.0625 474.613281 C 334.710938 476.371094 336.328125 478.171875 338.1875 479.648438 C 345.007812 485.117188 353.253906 478.757812 355.359375 472.21875 C 355.429688 471.992188 355.488281 471.761719 355.546875 471.535156 C 356.230469 468.894531 357.503906 466.882812 359.9375 464.921875 C 365.347656 460.5625 368.566406 454.480469 370.5 448.238281 C 372.691406 441.160156 374.179688 434.007812 375.910156 426.875 C 376.140625 425.917969 376.015625 424.964844 376.058594 424.007812 C 375.855469 424.015625 375.648438 424.023438 375.445312 424.03125 C 374.960938 426.375 374.460938 428.71875 373.996094 431.0625 C 372.472656 438.738281 370.621094 446.386719 367.035156 453.855469 C 362.957031 462.332031 356.992188 468.039062 348.109375 469.011719 C 339.28125 469.945312 333.765625 465.367188 330.195312 458.058594 C 327.5 452.535156 325.984375 446.449219 325.773438 440.234375 C 325.421875 430.066406 325.710938 419.835938 325.972656 409.621094 C 326.085938 405.261719 328.792969 402.386719 332.851562 400.65625 C 339.019531 398.042969 345.683594 402.273438 345.523438 408.789062 C 345.304688 417.828125 345.042969 426.898438 345.441406 435.824219 C 345.628906 440.011719 347.238281 443.929688 348.386719 447.878906 C 348.695312 448.933594 349.671875 449.683594 350.226562 450.414062 Z M 350.226562 450.414062 " fill-opacity="1" fill-rule="nonzero"/><path fill="#000000" d="M 497.800781 406.839844 C 497.46875 415.164062 496.765625 424.222656 493.285156 433.46875 C 488.855469 445.207031 477.726562 454.1875 466.0625 455.769531 C 453.660156 457.4375 445.960938 452.5625 443.214844 441.128906 C 440.238281 428.761719 441.203125 415.257812 444.15625 401.167969 C 445.160156 396.378906 450.855469 391.382812 455.476562 391.042969 C 460.714844 390.652344 464.097656 394.886719 463.046875 400.515625 C 461.386719 409.382812 460.464844 418.09375 461.5625 426.289062 C 461.898438 428.8125 462.757812 431.136719 463.5625 433.441406 C 464.414062 435.875 466.628906 435.996094 469.210938 435.351562 C 471.835938 434.695312 473.820312 433.273438 474.953125 430.425781 C 477.417969 424.253906 477.605469 418.308594 477.875 412.371094 C 478.066406 408.15625 477.796875 404.039062 477.953125 399.832031 C 478.09375 395.894531 481.398438 391.160156 484.984375 389.453125 C 489.65625 387.222656 494.058594 387.953125 496.191406 391.4375 C 496.914062 392.621094 497.367188 394.132812 497.476562 395.617188 C 497.730469 399.054688 497.699219 402.574219 497.800781 406.839844 Z M 497.800781 406.839844 " fill-opacity="1" fill-rule="nonzero"/><path fill="#000000" d="M 430.882812 408.371094 C 430.417969 408.351562 429.910156 408.417969 429.5 408.300781 C 423.074219 406.46875 414.097656 414.210938 413.636719 421.140625 C 413.5 423.21875 412.558594 424.617188 410.824219 426.15625 C 407.929688 428.71875 406.476562 431.945312 405.867188 435.359375 C 404.984375 440.28125 405.351562 444.648438 408.308594 447.554688 C 409.382812 448.609375 411.105469 448.964844 412.648438 449.691406 C 414.710938 447.53125 415.394531 445.089844 415.710938 442.726562 C 416.488281 436.96875 416.28125 431.539062 414.988281 426.53125 C 413.582031 421.082031 415.21875 416.199219 419.761719 412.3125 C 424.882812 407.929688 431.847656 407.90625 433.390625 412.941406 C 436.554688 423.269531 437.660156 434.515625 433.214844 447.246094 C 427.492188 463.628906 407.871094 474.382812 396.386719 467.175781 C 387.480469 461.597656 384.585938 451.785156 386.09375 439.683594 C 387.71875 426.636719 394.609375 415.855469 406.714844 407.65625 C 412.394531 403.8125 418.328125 401.066406 424.339844 400.351562 C 428.855469 399.816406 432.195312 403.941406 430.882812 408.371094 Z M 430.882812 408.371094 " fill-opacity="1" fill-rule="nonzero"/><path fill="#000000" d="M 503.949219 408.5625 C 504.703125 390.769531 510.453125 373.574219 518.371094 357.222656 C 520.316406 353.203125 523.566406 350.925781 527.828125 350.960938 C 531.761719 350.996094 534.785156 352.945312 536.289062 356.710938 C 537.480469 359.699219 537.265625 362.644531 535.734375 365.542969 C 528.964844 378.421875 524.839844 392.390625 524.015625 406.914062 C 523.753906 411.519531 524.191406 416.125 524.4375 420.71875 C 524.683594 425.34375 521.832031 430.011719 517.765625 431.550781 C 512.71875 433.449219 507.726562 432.140625 505.71875 427.96875 C 505.0625 426.609375 504.707031 424.988281 504.601562 423.398438 C 504.285156 418.480469 504.152344 413.511719 503.949219 408.5625 Z M 503.949219 408.5625 " fill-opacity="1" fill-rule="nonzero"/><path fill="#000000" d="M 504.058594 448.851562 C 504.316406 443.273438 508.734375 438.507812 514.300781 438.09375 C 519.738281 437.683594 524.015625 442.039062 523.738281 447.382812 C 523.460938 452.675781 518.636719 457.394531 513.371094 457.8125 C 507.988281 458.226562 503.808594 454.332031 504.058594 448.851562 Z M 504.058594 448.851562 " fill-opacity="1" fill-rule="nonzero"/><path fill="#000000" d="M 534.304688 410.5 C 536.941406 390.992188 550.230469 369.644531 561.3125 355.597656 C 574.890625 338.390625 595.035156 325.28125 617.1875 334.8125 C 640.34375 344.78125 659.957031 361.617188 670.289062 384.933594 C 677.039062 400.164062 679.480469 417.792969 674.625 433.941406 C 668.929688 452.878906 654.640625 461.71875 640.5 473.886719 C 632.230469 481 624.210938 488.617188 617.175781 496.957031 C 611.542969 503.640625 605.640625 511.015625 596.414062 512.421875 C 588.964844 513.5625 582.371094 510.617188 576.503906 506.289062 C 568.996094 500.75 566.921875 491.515625 563.175781 483.40625 C 553.996094 463.527344 536.484375 443.867188 534.070312 421.625 C 533.679688 418.03125 533.789062 414.300781 534.304688 410.5 Z M 563.953125 417.488281 C 564.808594 418.808594 565.632812 420.050781 566.050781 421.097656 C 568.390625 426.976562 569.101562 433.207031 571.078125 439.136719 C 573.363281 445.976562 576.792969 452.464844 579.835938 458.984375 C 585.527344 471.167969 593.964844 473.621094 605.40625 466.253906 C 612.289062 461.816406 619.75 454.773438 628.398438 454.710938 C 630.007812 454.695312 631.636719 454.894531 633.210938 454.558594 C 640.203125 453.058594 634.191406 445.738281 629.519531 446.714844 C 628.339844 446.957031 627.273438 447.570312 626.226562 448.167969 C 615.726562 454.199219 605.347656 460.371094 592.851562 456.246094 C 583.53125 453.171875 577.957031 445.207031 575.144531 436.167969 C 572.710938 428.34375 574.808594 414.332031 568.886719 408.308594 C 566.722656 406.109375 562.863281 406.472656 561.441406 409.457031 C 560.324219 411.792969 562.210938 414.804688 563.953125 417.488281 Z M 641.234375 399.078125 C 641.773438 395.75 640.808594 393.113281 636.269531 393.441406 C 633.597656 393.636719 631.386719 395.527344 629.480469 397.40625 C 626.503906 400.351562 623.75 403.515625 621.242188 406.871094 C 618.902344 410.003906 607.417969 429.53125 614.402344 431.035156 C 621.328125 432.527344 632.78125 415.382812 636.21875 410.429688 C 637.46875 408.621094 640.554688 403.292969 641.234375 399.078125 Z M 585.460938 404.53125 C 586.242188 405.921875 587.507812 406.613281 589.371094 405.171875 C 591.136719 403.800781 593.097656 401.734375 594.140625 399.730469 C 597.910156 392.5 602.738281 385.507812 604.878906 377.550781 C 605.617188 374.804688 605.960938 368.433594 603.570312 366.28125 C 599.046875 362.207031 595.191406 369.917969 593.738281 373.726562 C 591.664062 379.160156 589.460938 384.503906 587.382812 389.9375 C 586.152344 393.15625 584.578125 396.460938 584.460938 399.964844 C 584.414062 401.289062 584.722656 403.21875 585.460938 404.53125 Z M 585.460938 404.53125 " fill-opacity="1" fill-rule="nonzero"/><path fill="#000000" d="M 181.664062 452.03125 C 181.273438 452.03125 180.875 451.914062 180.53125 451.667969 C 163.601562 439.621094 145.261719 429.515625 126.035156 421.628906 C 123.738281 420.6875 121.667969 419.957031 119.613281 419.917969 C 119.609375 419.917969 119.601562 419.917969 119.601562 419.917969 C 118.527344 419.917969 117.652344 419.050781 117.644531 417.976562 C 117.636719 416.894531 118.507812 416.011719 119.585938 416.003906 C 122.375 416.089844 124.925781 416.941406 127.523438 418.007812 C 147.027344 426.007812 165.625 436.261719 182.800781 448.480469 C 183.683594 449.105469 183.886719 450.328125 183.261719 451.207031 C 182.875 451.746094 182.273438 452.03125 181.664062 452.03125 Z M 181.664062 452.03125 " fill-opacity="1" fill-rule="nonzero"/><path fill="#000000" d="M 315.4375 521.273438 C 314.453125 521.273438 313.605469 520.535156 313.496094 519.53125 C 311.65625 503.019531 297.542969 494.671875 289.289062 491.164062 C 288.296875 490.742188 287.832031 489.589844 288.253906 488.601562 C 288.679688 487.601562 289.828125 487.148438 290.820312 487.5625 C 306.425781 494.199219 315.859375 505.398438 317.382812 519.101562 C 317.5 520.175781 316.730469 521.140625 315.65625 521.261719 C 315.582031 521.265625 315.507812 521.273438 315.4375 521.273438 Z M 315.4375 521.273438 " fill-opacity="1" fill-rule="nonzero"/><path fill="#ffffff" d="M 618.785156 258.578125 C 615.09375 259.765625 611.332031 261.28125 608.722656 264.152344 C 606.113281 267.023438 605 271.589844 607.097656 274.851562 C 609.472656 278.550781 614.710938 279.09375 619.015625 278.214844 C 626.09375 276.777344 632.441406 272.628906 639.582031 271.550781 C 647.191406 270.398438 655.285156 273.058594 660.726562 278.5 C 662.972656 280.742188 664.878906 283.492188 667.75 284.84375 C 676.320312 288.871094 686.617188 278.109375 695.21875 282.074219 C 698.671875 283.664062 701.074219 287.433594 704.839844 287.996094 C 714.894531 289.492188 712.894531 278.382812 709.757812 272.625 C 703.875 261.820312 690.21875 259.378906 678.742188 258.773438 C 659.273438 257.738281 637.820312 252.464844 618.785156 258.578125 Z M 618.785156 258.578125 " fill-opacity="1" fill-rule="nonzero"/><path fill="#000000" d="M 706.570312 290.089844 C 705.949219 290.089844 705.28125 290.039062 704.558594 289.929688 C 701.808594 289.523438 699.722656 287.804688 697.882812 286.285156 C 696.707031 285.316406 695.597656 284.402344 694.402344 283.851562 C 690.847656 282.210938 686.628906 283.714844 682.164062 285.3125 C 677.144531 287.113281 671.957031 288.980469 666.921875 286.613281 C 664.449219 285.453125 662.695312 283.519531 661 281.652344 C 660.457031 281.050781 659.910156 280.453125 659.34375 279.882812 C 654.335938 274.875 646.859375 272.429688 639.875 273.484375 C 636.316406 274.027344 632.953125 275.378906 629.394531 276.808594 C 626.199219 278.09375 622.902344 279.421875 619.40625 280.132812 C 614.589844 281.109375 608.40625 280.511719 605.449219 275.910156 C 602.710938 271.65625 604.292969 266.109375 607.273438 262.835938 C 610.230469 259.582031 614.449219 257.917969 618.183594 256.714844 C 632.554688 252.097656 648.074219 253.777344 663.085938 255.398438 C 668.554688 255.992188 673.722656 256.546875 678.84375 256.820312 C 689.691406 257.394531 704.875 259.5625 711.476562 271.691406 C 713.320312 275.070312 715.96875 282.664062 712.808594 287.1875 C 711.839844 288.578125 709.992188 290.089844 706.570312 290.089844 Z M 690.964844 279.21875 C 692.667969 279.21875 694.363281 279.523438 696.039062 280.296875 C 697.695312 281.058594 699.054688 282.183594 700.371094 283.269531 C 701.957031 284.574219 703.457031 285.8125 705.128906 286.0625 C 707.347656 286.382812 708.851562 286.015625 709.601562 284.945312 C 711.210938 282.640625 710.042969 277.242188 708.039062 273.5625 C 702.375 263.15625 688.542969 261.253906 678.636719 260.730469 C 673.410156 260.453125 667.945312 259.859375 662.664062 259.292969 C 648.0625 257.714844 632.960938 256.085938 619.382812 260.445312 C 615.972656 261.539062 612.5 262.902344 610.167969 265.472656 C 608.246094 267.589844 607.085938 271.226562 608.738281 273.796875 C 610.632812 276.746094 615.257812 276.984375 618.625 276.300781 C 621.773438 275.660156 624.765625 274.457031 627.929688 273.179688 C 631.542969 271.726562 635.277344 270.226562 639.289062 269.617188 C 647.496094 268.375 656.238281 271.25 662.109375 277.117188 C 662.71875 277.726562 663.308594 278.375 663.898438 279.023438 C 665.398438 280.679688 666.820312 282.242188 668.585938 283.070312 C 672.144531 284.742188 676.367188 283.230469 680.839844 281.628906 C 684.175781 280.4375 687.582031 279.21875 690.964844 279.21875 Z M 690.964844 279.21875 " fill-opacity="1" fill-rule="nonzero"/><path fill="#ffffff" d="M 461.460938 222.101562 C 459.097656 225.835938 457.453125 230.34375 458.429688 234.652344 C 459.410156 238.960938 463.773438 242.65625 468.078125 241.652344 C 473.460938 240.398438 475.054688 233.75 477.742188 228.917969 C 481.347656 222.425781 492.371094 223.683594 495.222656 217.28125 C 498.726562 209.429688 487.847656 207 481.367188 207.878906 C 473.421875 208.953125 465.621094 215.519531 461.460938 222.101562 Z M 461.460938 222.101562 " fill-opacity="1" fill-rule="nonzero"/><path fill="#000000" d="M 466.640625 243.773438 C 464.949219 243.773438 463.230469 243.261719 461.664062 242.28125 C 459.101562 240.679688 457.179688 237.988281 456.519531 235.082031 C 455.300781 229.707031 457.632812 224.484375 459.804688 221.054688 C 464.019531 214.394531 472.242188 207.140625 481.109375 205.941406 C 486.433594 205.222656 493.632812 206.527344 496.503906 210.363281 C 497.636719 211.871094 498.636719 214.433594 497.007812 218.082031 C 495.230469 222.0625 491.21875 223.523438 487.34375 224.933594 C 484.023438 226.140625 480.882812 227.285156 479.449219 229.867188 C 478.84375 230.960938 478.292969 232.152344 477.742188 233.351562 C 475.785156 237.582031 473.570312 242.378906 468.519531 243.558594 C 467.902344 243.703125 467.273438 243.773438 466.640625 243.773438 Z M 463.113281 223.148438 C 461.335938 225.953125 459.417969 230.152344 460.339844 234.214844 C 460.769531 236.097656 462.070312 237.921875 463.742188 238.964844 C 464.636719 239.523438 466.039062 240.125 467.636719 239.742188 C 470.824219 239 472.460938 235.457031 474.191406 231.707031 C 474.789062 230.421875 475.378906 229.140625 476.035156 227.960938 C 478.175781 224.105469 482.335938 222.589844 486.007812 221.253906 C 489.40625 220.015625 492.339844 218.949219 493.441406 216.480469 C 494.367188 214.410156 493.847656 213.332031 493.378906 212.703125 C 491.554688 210.269531 485.839844 209.246094 481.636719 209.8125 C 474.058594 210.839844 466.722656 217.445312 463.113281 223.148438 Z M 463.113281 223.148438 " fill-opacity="1" fill-rule="nonzero"/><path fill="#ffffff" d="M 242.894531 239.066406 C 248.1875 246.417969 250.65625 256.152344 258.109375 261.304688 C 260.523438 262.972656 263.355469 264.058594 265.484375 266.078125 C 267.613281 268.097656 268.828125 271.597656 267.101562 273.96875 C 266.414062 274.90625 265.371094 275.527344 264.296875 275.964844 C 260.378906 277.578125 255.667969 277.078125 252.179688 274.675781 C 246.25 270.59375 244.839844 262.554688 240.847656 256.566406 C 233.527344 245.582031 208.964844 250.117188 213.199219 234.695312 C 217.660156 218.441406 236.808594 230.609375 242.894531 239.066406 Z M 242.894531 239.066406 " fill-opacity="1" fill-rule="nonzero"/><path fill="#000000" d="M 259.460938 278.871094 C 256.5 278.871094 253.542969 277.992188 251.066406 276.289062 C 246.8125 273.359375 244.710938 268.761719 242.683594 264.3125 C 241.589844 261.921875 240.558594 259.660156 239.21875 257.652344 C 236.535156 253.625 230.851562 251.878906 225.355469 250.191406 C 217.386719 247.738281 208.351562 244.960938 211.3125 234.175781 C 213.136719 227.523438 217.15625 225.472656 220.210938 224.921875 C 228.6875 223.390625 239.957031 231.636719 244.484375 237.921875 C 246.445312 240.648438 248.023438 243.667969 249.554688 246.589844 C 252.257812 251.761719 254.816406 256.648438 259.222656 259.691406 C 260.089844 260.292969 261.019531 260.8125 261.945312 261.335938 C 263.613281 262.269531 265.335938 263.242188 266.832031 264.660156 C 269.550781 267.238281 271.121094 271.78125 268.679688 275.125 C 267.871094 276.234375 266.675781 277.101562 265.039062 277.78125 C 263.261719 278.511719 261.359375 278.871094 259.460938 278.871094 Z M 222.417969 228.644531 C 221.898438 228.644531 221.390625 228.683594 220.902344 228.773438 C 218.039062 229.289062 216.136719 231.394531 215.085938 235.210938 C 213.21875 242.019531 217.71875 243.746094 226.507812 246.449219 C 232.371094 248.253906 239.015625 250.296875 242.476562 255.484375 C 243.992188 257.753906 245.136719 260.265625 246.242188 262.691406 C 248.136719 266.835938 249.925781 270.75 253.285156 273.066406 C 256.222656 275.089844 260.253906 275.519531 263.550781 274.160156 C 264.503906 273.769531 265.148438 273.328125 265.523438 272.816406 C 266.554688 271.398438 265.640625 268.921875 264.140625 267.496094 C 263 266.410156 261.554688 265.601562 260.03125 264.742188 C 259 264.164062 257.96875 263.582031 257 262.914062 C 251.796875 259.316406 248.894531 253.769531 246.085938 248.402344 C 244.625 245.601562 243.105469 242.710938 241.308594 240.207031 C 237.675781 235.160156 228.921875 228.644531 222.417969 228.644531 Z M 222.417969 228.644531 " fill-opacity="1" fill-rule="nonzero"/><path fill="#ffffff" d="M 72.667969 268.84375 C 85.992188 269.964844 98.863281 274.097656 111.449219 278.609375 C 116.515625 280.421875 122.605469 284.019531 121.605469 289.304688 C 120.78125 293.660156 115.519531 295.511719 111.085938 295.621094 C 96.632812 295.980469 83.199219 286.804688 68.746094 287.246094 C 60.890625 287.484375 33.875 296.945312 34.214844 282.335938 C 34.542969 268.222656 64.332031 268.144531 72.667969 268.84375 Z M 72.667969 268.84375 " fill-opacity="1" fill-rule="nonzero"/><path fill="#000000" d="M 110.257812 297.585938 C 103.050781 297.585938 96.121094 295.40625 89.410156 293.292969 C 82.375 291.078125 75.71875 289 68.808594 289.199219 C 67.175781 289.246094 64.457031 289.765625 61.3125 290.371094 C 52.148438 292.121094 40.746094 294.304688 35.242188 289.648438 C 33.1875 287.90625 32.183594 285.433594 32.257812 282.289062 C 32.332031 279.085938 33.664062 276.296875 36.21875 274 C 46.464844 264.796875 72.566406 266.871094 72.832031 266.894531 C 86.960938 268.082031 100.511719 272.613281 112.109375 276.765625 C 120.355469 279.722656 124.519531 284.425781 123.523438 289.664062 C 122.457031 295.304688 116.179688 297.449219 111.128906 297.574219 C 110.839844 297.582031 110.546875 297.585938 110.257812 297.585938 Z M 69.753906 285.273438 C 76.953125 285.273438 83.878906 287.449219 90.585938 289.5625 C 97.566406 291.757812 104.171875 293.839844 111.03125 293.660156 C 114.785156 293.570312 119.089844 292.050781 119.679688 288.9375 C 120.550781 284.332031 113.09375 281.277344 110.785156 280.449219 C 99.425781 276.378906 86.160156 271.941406 72.5 270.792969 C 66.128906 270.253906 46.265625 270.234375 38.832031 276.910156 C 37.085938 278.480469 36.214844 280.269531 36.167969 282.382812 C 36.121094 284.316406 36.644531 285.714844 37.765625 286.664062 C 41.839844 290.113281 53.113281 287.953125 60.570312 286.53125 C 63.878906 285.894531 66.734375 285.347656 68.683594 285.289062 C 69.042969 285.277344 69.398438 285.273438 69.753906 285.273438 Z M 69.753906 285.273438 " fill-opacity="1" fill-rule="nonzero"/></svg>